<?xml version="1.0" encoding="UTF-8" standalone="no"?>
<!DOCTYPE svg PUBLIC "-//W3C//DTD SVG 20010904//EN"
              "http://www.w3.org/TR/2001/REC-SVG-20010904/DTD/svg10.dtd">

<svg xmlns="http://www.w3.org/2000/svg"
     width="5.16667in" height="2.37667in"
     viewBox="0 0 1550 713">
  <path id="Selection"
        fill="none" stroke="black" stroke-width="1"
        d="M 163.00,84.00
           C 179.39,76.31 200.30,75.35 218.00,78.32
             218.00,78.32 228.00,80.99 228.00,80.99
             271.15,90.85 322.75,129.11 359.00,154.56
             380.24,169.47 415.31,192.90 438.00,204.25
             449.77,210.13 461.55,216.98 475.00,217.00
             475.00,217.00 487.00,217.00 487.00,217.00
             503.83,217.03 529.32,224.19 544.00,232.35
             584.83,255.03 606.08,292.88 616.50,337.00
             616.50,337.00 620.28,362.00 620.28,362.00
             620.28,362.00 623.00,387.00 623.00,387.00
             623.00,387.00 623.00,426.00 623.00,426.00
             623.00,426.00 620.29,451.00 620.29,451.00
             620.29,451.00 616.88,474.00 616.88,474.00
             608.61,513.57 588.36,551.57 554.00,574.16
             543.90,580.81 533.59,585.52 522.00,588.96
             522.00,588.96 512.00,591.23 512.00,591.23
             492.64,595.75 489.62,595.23 470.00,595.00
             470.00,595.00 460.00,593.96 460.00,593.96
             460.00,593.96 450.00,593.96 450.00,593.96
             450.00,593.96 425.00,587.92 425.00,587.92
             413.25,583.91 401.17,578.12 391.00,570.96
             355.95,546.25 337.84,508.23 330.68,467.00
             328.43,454.05 326.02,441.23 326.00,428.00
             326.00,428.00 326.00,384.00 326.00,384.00
             326.00,384.00 326.91,372.00 326.91,372.00
             329.44,335.85 340.08,295.75 363.00,267.00
             371.40,256.47 385.66,242.59 398.00,237.00
             398.00,237.00 398.00,235.00 398.00,235.00
             392.69,233.71 390.32,234.01 385.00,234.00
             371.52,233.98 346.35,228.35 334.00,222.69
             334.00,222.69 296.00,202.42 296.00,202.42
             263.74,184.15 232.78,164.16 199.00,148.69
             174.46,137.45 148.41,126.68 121.00,127.00
             106.44,127.17 85.53,132.20 73.00,139.60
             69.97,141.39 61.88,147.71 59.08,142.69
             57.72,140.24 59.64,137.80 61.15,136.00
             63.20,133.56 70.44,126.53 73.00,124.52
             89.90,111.20 113.62,104.25 135.00,104.00
             145.65,103.88 147.11,104.86 157.00,106.99
             157.00,106.99 167.00,108.61 167.00,108.61
             180.97,112.19 194.82,117.83 208.00,123.58
             230.13,133.22 253.40,145.49 274.00,158.06
             295.80,171.36 337.25,198.79 359.00,207.86
             380.23,216.71 404.06,221.00 427.00,221.00
             423.28,217.72 408.66,212.23 403.00,209.40
             403.00,209.40 355.00,182.80 355.00,182.80
             317.72,160.17 282.03,134.89 243.00,115.27
             227.63,107.54 200.30,95.96 184.00,90.90
             184.00,90.90 163.00,86.00 163.00,86.00
             163.00,86.00 163.00,84.00 163.00,84.00 Z
           M 1172.00,235.00
           C 1175.94,239.53 1182.18,242.94 1187.00,246.81
             1193.00,251.62 1201.35,260.01 1206.20,266.00
             1221.77,285.27 1231.88,310.09 1237.66,334.00
             1237.66,334.00 1239.37,345.00 1239.37,345.00
             1241.83,357.41 1243.98,370.30 1244.00,383.00
             1244.00,383.00 1244.00,428.00 1244.00,428.00
             1244.00,428.00 1243.09,440.00 1243.09,440.00
             1240.75,473.46 1230.66,511.24 1211.23,539.00
             1190.34,568.84 1156.87,588.41 1121.00,593.70
             1109.14,595.45 1096.97,595.14 1085.00,595.00
             1068.84,594.81 1047.78,589.99 1033.00,583.42
             1011.71,573.96 995.34,559.48 981.34,541.00
             977.12,535.43 973.87,529.23 970.75,523.00
             958.61,498.72 953.05,477.78 949.71,451.00
             949.71,451.00 947.00,427.00 947.00,427.00
             947.00,427.00 947.00,385.00 947.00,385.00
             947.00,385.00 949.85,361.00 949.85,361.00
             956.47,305.72 978.97,256.11 1031.00,229.86
             1039.83,225.41 1046.57,223.56 1056.00,221.26
             1064.36,219.22 1074.41,217.10 1083.00,217.00
             1083.00,217.00 1096.00,217.00 1096.00,217.00
             1112.57,216.92 1138.51,200.92 1153.00,192.56
             1187.44,172.71 1218.91,148.05 1252.00,126.07
             1280.29,107.29 1309.78,89.04 1343.00,80.63
             1343.00,80.63 1352.00,78.32 1352.00,78.32
             1360.50,76.92 1369.40,76.90 1378.00,77.00
             1383.62,77.07 1399.44,79.79 1403.71,82.93
             1405.22,84.04 1405.19,84.54 1406.00,86.00
             1406.00,86.00 1383.00,91.83 1383.00,91.83
             1360.26,99.35 1338.22,109.34 1317.00,120.39
             1317.00,120.39 1266.00,150.54 1266.00,150.54
             1266.00,150.54 1222.00,178.72 1222.00,178.72
             1222.00,178.72 1169.00,208.52 1169.00,208.52
             1162.08,212.13 1148.89,216.12 1144.00,221.00
             1167.96,221.00 1192.01,216.11 1214.00,206.50
             1228.97,199.96 1258.14,181.61 1273.00,172.46
             1302.48,154.31 1332.18,136.37 1364.00,122.58
             1375.37,117.65 1392.05,111.14 1404.00,108.33
             1404.00,108.33 1416.00,106.39 1416.00,106.39
             1416.00,106.39 1430.00,104.04 1430.00,104.04
             1435.03,103.84 1436.63,104.61 1441.00,105.04
             1441.00,105.04 1449.00,105.04 1449.00,105.04
             1465.87,106.98 1482.41,113.86 1496.00,123.86
             1498.30,125.55 1508.17,134.11 1509.69,136.04
             1511.12,137.86 1512.74,141.09 1511.00,143.26
             1508.03,146.97 1499.17,140.63 1496.00,139.00
             1483.25,132.46 1464.38,127.17 1450.00,127.00
             1417.39,126.62 1383.55,141.90 1355.00,156.54
             1355.00,156.54 1278.00,200.31 1278.00,200.31
             1267.45,206.60 1241.79,220.99 1231.00,224.91
             1212.48,231.64 1191.57,234.10 1172.00,235.00 Z
           M 61.32,178.01
           C 65.83,176.35 70.22,177.94 75.00,178.01
             75.00,178.01 97.00,179.96 97.00,179.96
             97.00,179.96 112.00,179.96 112.00,179.96
             115.16,180.00 123.16,180.34 125.85,181.58
             129.57,183.31 128.99,187.55 129.00,191.00
             129.00,191.00 129.00,432.00 129.00,432.00
             129.00,435.02 129.34,438.99 127.26,441.43
             125.64,443.34 112.91,448.71 110.00,449.79
             108.20,450.22 105.32,451.17 103.60,449.79
             101.63,448.53 102.00,444.18 102.00,442.00
             102.00,442.00 102.00,245.00 102.00,245.00
             101.96,220.78 94.10,197.85 70.00,188.01
             65.77,186.29 55.77,184.29 61.32,178.01 Z
           M 208.00,177.23
           C 210.35,177.14 212.62,176.91 215.00,177.23
             218.73,177.26 223.44,179.29 220.22,183.70
             218.68,185.81 215.35,186.56 213.00,187.43
             208.13,189.25 205.24,190.66 201.00,193.76
             184.99,205.47 178.23,220.56 177.96,240.00
             177.96,240.00 177.96,252.00 177.96,252.00
             177.96,252.00 177.00,264.00 177.00,264.00
             177.00,264.00 177.00,364.00 177.00,364.00
             177.00,364.00 178.00,377.00 178.00,377.00
             178.18,392.77 179.63,402.96 196.00,409.80
             203.57,412.96 209.42,412.17 216.00,413.63
             218.57,414.21 222.14,415.47 221.26,418.89
             220.09,423.39 209.91,423.38 206.00,423.85
             206.00,423.85 168.00,430.60 168.00,430.60
             164.68,431.28 155.75,434.27 153.23,433.67
             148.34,432.49 150.00,417.24 150.00,413.00
             150.00,413.00 150.00,345.00 150.00,345.00
             150.00,345.00 150.00,192.00 150.00,192.00
             150.01,189.09 149.71,184.81 151.89,182.57
             153.84,180.57 168.58,180.01 172.00,180.00
             172.00,180.00 196.00,178.09 196.00,178.09
             196.00,178.09 208.00,177.23 208.00,177.23 Z
           M 1350.43,178.01
           C 1356.02,175.81 1362.21,177.52 1368.00,178.01
             1368.00,178.01 1376.00,178.01 1376.00,178.01
             1376.00,178.01 1403.00,180.00 1403.00,180.00
             1405.55,180.03 1415.81,180.81 1417.57,182.02
             1420.44,184.00 1419.99,188.91 1420.00,192.00
             1420.00,192.00 1420.00,424.00 1420.00,424.00
             1420.00,426.74 1420.53,432.03 1417.57,433.41
             1414.43,434.88 1405.43,431.39 1402.00,430.43
             1402.00,430.43 1391.00,428.48 1391.00,428.48
             1391.00,428.48 1384.00,426.52 1384.00,426.52
             1384.00,426.52 1367.00,424.15 1367.00,424.15
             1362.56,423.62 1348.91,423.99 1348.74,418.01
             1348.63,413.88 1354.17,414.00 1357.00,413.57
             1365.94,412.23 1374.69,411.09 1381.99,405.32
             1392.53,396.99 1391.52,387.91 1392.04,376.00
             1392.04,376.00 1393.00,363.00 1393.00,363.00
             1393.00,363.00 1393.00,260.00 1393.00,260.00
             1393.00,260.00 1392.00,247.00 1392.00,247.00
             1391.91,238.87 1391.96,226.35 1388.69,219.00
             1383.70,207.78 1376.70,198.25 1366.00,191.76
             1360.23,188.26 1353.84,186.55 1352.06,185.59
             1348.29,183.54 1347.72,181.17 1350.43,178.01 Z
           M 1503.00,177.44
           C 1510.98,176.90 1511.89,181.52 1509.26,184.27
             1509.26,184.27 1496.00,189.81 1496.00,189.81
             1487.03,194.32 1480.87,200.12 1476.12,209.00
             1464.89,230.01 1468.00,263.25 1468.00,287.00
             1468.00,287.00 1468.00,442.00 1468.00,442.00
             1468.00,444.27 1468.33,448.67 1466.40,450.22
             1464.56,451.70 1461.87,450.47 1460.00,449.69
             1456.95,448.41 1444.27,443.40 1442.74,441.57
             1440.69,439.12 1441.00,435.03 1441.00,432.00
             1441.00,432.00 1441.00,241.00 1441.00,241.00
             1441.00,241.00 1441.00,190.00 1441.00,190.00
             1441.02,187.65 1440.81,184.39 1442.60,182.60
             1444.41,180.78 1447.63,181.04 1450.00,181.00
             1450.00,181.00 1465.00,180.00 1465.00,180.00
             1465.00,180.00 1472.00,180.00 1472.00,180.00
             1472.00,180.00 1503.00,177.44 1503.00,177.44 Z
           M 466.00,246.28
           C 437.22,250.44 416.07,254.37 395.09,277.00
             374.24,299.48 365.58,331.36 361.72,361.00
             361.72,361.00 359.00,388.00 359.00,388.00
             359.00,388.00 359.00,423.00 359.00,423.00
             359.00,423.00 360.91,443.00 360.91,443.00
             363.66,480.63 378.75,527.59 412.00,548.91
             418.39,553.01 429.72,558.24 437.00,560.54
             445.94,563.36 464.58,565.89 474.00,566.00
             486.42,566.14 499.01,564.44 511.00,561.08
             547.89,550.72 570.56,518.49 580.41,483.00
             580.41,483.00 583.21,470.00 583.21,470.00
             583.21,470.00 585.71,459.00 585.71,459.00
             585.71,459.00 587.17,443.00 587.17,443.00
             587.17,443.00 590.00,417.00 590.00,417.00
             590.00,417.00 590.00,389.00 590.00,389.00
             590.00,389.00 587.28,363.00 587.28,363.00
             587.28,363.00 585.71,347.00 585.71,347.00
             583.05,329.80 575.42,307.82 566.34,293.00
             549.47,265.45 525.97,253.00 495.00,247.92
             485.35,246.34 475.78,245.38 466.00,246.28 Z
           M 1088.00,246.14
           C 1067.56,249.22 1053.84,250.36 1035.17,261.15
             1012.32,274.37 997.55,299.37 989.90,324.00
             989.90,324.00 987.85,333.00 987.85,333.00
             987.85,333.00 984.32,347.00 984.32,347.00
             984.32,347.00 982.84,362.00 982.84,362.00
             982.84,362.00 980.00,388.00 980.00,388.00
             980.00,388.00 980.00,419.00 980.00,419.00
             980.00,419.00 983.06,443.00 983.06,443.00
             983.06,443.00 983.06,452.00 983.06,452.00
             983.06,452.00 986.58,469.00 986.58,469.00
             993.95,502.20 1007.51,535.40 1039.00,552.69
             1046.72,556.93 1055.45,560.22 1064.00,562.23
             1069.21,563.46 1082.98,565.94 1088.00,566.00
             1103.10,566.17 1118.47,564.95 1133.00,560.56
             1136.85,559.40 1144.27,556.08 1148.00,554.24
             1185.57,535.77 1199.37,499.68 1206.61,461.00
             1206.61,461.00 1211.00,427.00 1211.00,427.00
             1211.00,427.00 1211.00,390.00 1211.00,390.00
             1211.00,390.00 1208.13,360.00 1208.13,360.00
             1208.13,360.00 1204.63,338.00 1204.63,338.00
             1204.63,338.00 1202.15,330.00 1202.15,330.00
             1195.79,307.34 1186.14,286.07 1168.00,270.29
             1156.77,260.52 1145.11,255.14 1131.00,250.86
             1125.34,249.14 1105.00,246.07 1099.00,246.14
             1099.00,246.14 1088.00,246.14 1088.00,246.14 Z
           M 337.00,548.00
           C 330.28,547.22 320.15,539.11 315.17,534.42
             300.02,520.15 287.01,502.86 280.41,483.00
             280.41,483.00 272.33,458.00 272.33,458.00
             272.33,458.00 270.71,447.00 270.71,447.00
             268.98,435.81 267.02,424.37 267.00,413.00
             266.96,390.44 270.33,360.38 277.52,339.00
             281.13,328.24 285.37,319.88 290.77,310.00
             298.16,296.49 308.74,284.24 320.04,273.83
             325.05,269.22 330.16,264.43 337.00,263.00
             334.89,269.80 330.44,275.66 327.25,282.00
             322.06,292.30 317.69,302.93 314.44,314.00
             309.89,329.50 304.19,361.02 304.00,377.00
             304.00,377.00 303.00,397.00 303.00,397.00
             303.00,397.00 303.00,426.00 303.00,426.00
             303.00,426.00 305.07,450.00 305.07,450.00
             305.07,450.00 305.07,459.00 305.07,459.00
             305.07,459.00 307.69,469.00 307.69,469.00
             307.69,469.00 309.51,481.00 309.51,481.00
             312.12,492.64 318.08,510.29 323.26,521.00
             323.26,521.00 337.00,548.00 337.00,548.00 Z
           M 1233.00,263.00
           C 1239.59,264.40 1246.23,270.38 1251.00,275.01
             1262.88,286.55 1269.50,293.54 1277.99,308.00
             1287.74,324.60 1295.14,342.96 1298.54,362.00
             1298.54,362.00 1299.44,370.00 1299.44,370.00
             1300.45,376.42 1302.86,393.11 1302.16,399.00
             1302.16,399.00 1302.16,407.00 1302.16,407.00
             1302.16,407.00 1302.16,424.00 1302.16,424.00
             1301.99,431.89 1300.66,439.30 1299.32,447.00
             1299.32,447.00 1297.78,458.00 1297.78,458.00
             1295.81,467.31 1291.76,478.13 1288.20,487.00
             1280.79,505.48 1268.78,521.88 1253.99,535.15
             1248.43,540.14 1240.53,547.15 1233.00,548.00
             1233.00,548.00 1245.03,525.00 1245.03,525.00
             1251.46,512.12 1257.75,494.10 1260.71,480.00
             1260.71,480.00 1262.32,469.00 1262.32,469.00
             1262.32,469.00 1264.94,458.00 1264.94,458.00
             1264.94,458.00 1264.94,450.00 1264.94,450.00
             1264.94,450.00 1267.00,427.00 1267.00,427.00
             1267.00,427.00 1267.00,397.00 1267.00,397.00
             1267.00,397.00 1266.00,378.00 1266.00,378.00
             1265.80,360.96 1260.30,330.58 1255.57,314.00
             1252.40,302.89 1247.04,290.27 1241.74,280.00
             1238.81,274.32 1234.80,269.17 1233.00,263.00 Z
           M 613.00,264.00
           C 620.36,265.80 626.62,271.88 632.00,277.00
             643.69,288.13 652.28,297.57 659.94,312.00
             676.28,342.77 679.55,363.82 681.04,398.00
             681.04,398.00 682.00,414.00 682.00,414.00
             682.00,414.00 680.28,432.00 680.28,432.00
             677.87,452.17 675.20,469.18 666.77,488.00
             658.14,507.25 648.73,520.81 633.00,535.07
             627.31,540.24 619.92,547.38 612.00,548.00
             613.09,542.24 621.19,528.29 624.29,522.00
             624.29,522.00 634.98,493.00 634.98,493.00
             639.60,478.08 645.93,444.34 646.00,429.00
             646.00,429.00 647.00,407.00 647.00,407.00
             647.00,407.00 646.00,394.00 646.00,394.00
             646.00,394.00 646.00,381.00 646.00,381.00
             645.97,361.16 638.52,326.80 631.82,308.00
             631.82,308.00 619.36,279.00 619.36,279.00
             616.79,273.62 613.82,270.00 613.00,264.00 Z
           M 957.00,549.00
           C 950.10,546.80 941.24,539.08 936.00,534.01
             920.65,519.15 913.70,510.41 904.71,491.00
             894.29,468.53 890.70,447.44 888.91,423.00
             888.91,423.00 888.00,413.00 888.00,413.00
             888.00,413.00 888.96,399.00 888.96,399.00
             888.96,399.00 891.30,366.00 891.30,366.00
             893.84,348.35 901.83,326.48 910.58,311.00
             918.45,297.06 928.69,284.40 941.00,274.08
             946.19,269.73 949.53,266.39 956.00,264.00
             956.76,269.73 952.24,274.94 949.88,280.00
             949.88,280.00 936.07,314.00 936.07,314.00
             936.07,314.00 929.32,339.00 929.32,339.00
             929.32,339.00 928.39,348.00 928.39,348.00
             926.47,358.90 924.02,369.88 924.00,381.00
             924.00,381.00 924.00,389.00 924.00,389.00
             924.00,389.00 923.00,406.00 923.00,406.00
             923.00,406.00 924.00,430.00 924.00,430.00
             924.05,440.27 926.60,451.87 928.39,462.00
             928.39,462.00 929.46,471.00 929.46,471.00
             929.46,471.00 937.42,500.00 937.42,500.00
             937.42,500.00 951.25,533.00 951.25,533.00
             954.15,538.75 958.47,542.50 957.00,549.00 Z" />
</svg>
